<svg width="48" height="48" viewBox="0 0 48 48" fill="none" xmlns="http://www.w3.org/2000/svg">
<path d="M29.3297 10.2937C30.2719 7.22731 33.1273 5 36.5002 5C40.6423 5 44.0002 8.35786 44.0002 12.5C44.0002 14.2612 43.3944 15.8781 42.3791 17.1576C42.0358 17.5903 42.1082 18.2193 42.5409 18.5626C42.9735 18.9059 43.6025 18.8334 43.9458 18.4008C45.2316 16.7803 46.0002 14.7285 46.0002 12.5C46.0002 7.25329 41.7469 3 36.5002 3C32.2244 3 28.6108 5.82402 27.4179 9.70628C27.2557 10.2342 27.5522 10.7937 28.0801 10.9559C28.608 11.1181 29.1675 10.8216 29.3297 10.2937Z" fill="#2E3A59"/>
<path d="M29.9423 21.396C29.8963 20.9556 29.823 20.5233 29.7242 20.1008C30.1385 20.0346 30.5644 20 30.9998 20C35.418 20 38.9998 23.5817 38.9998 28C38.9998 32.4183 35.418 36 30.9998 36C30.4475 36 29.9998 36.4477 29.9998 37C29.9998 37.5523 30.4475 38 30.9998 38C36.5226 38 40.9998 33.5229 40.9998 28C40.9998 22.4772 36.5226 18 30.9998 18C30.3414 18 29.6979 18.0636 29.075 18.1851C28.4537 16.8085 27.5443 15.5899 26.4236 14.6062C24.581 12.9886 22.1672 12.006 19.5239 12L19.4998 12C13.7008 12 8.99976 16.701 8.99976 22.5C8.99976 22.6729 9.00393 22.8448 9.01219 23.0156C5.0973 23.2668 1.99976 26.5217 1.99976 30.5C1.99976 34.6421 5.35762 38 9.49976 38H9.99976C10.552 38 10.9998 37.5523 10.9998 37C10.9998 36.4477 10.552 36 9.99976 36H9.49976C6.46219 36 3.99976 33.5376 3.99976 30.5C3.99976 27.5833 6.27123 25.1956 9.14026 25.0115L11.1049 24.8854L11.0099 22.919C11.0032 22.7803 10.9998 22.6406 10.9998 22.5C10.9998 17.8056 14.8053 14 19.4998 14C19.857 14 20.2091 14.022 20.5549 14.0648C24.4586 14.5482 27.5426 17.6789 27.9532 21.604C28.0106 22.1533 28.5025 22.552 29.0518 22.4946C29.6011 22.4371 29.9998 21.9452 29.9423 21.396Z" fill="#2E3A59"/>
<path d="M24.4998 34.5C24.2236 34.5 23.9998 34.7239 23.9998 35V36.5H22.4998C22.2236 36.5 21.9998 36.7239 21.9998 37V38C21.9998 38.2761 22.2236 38.5 22.4998 38.5H23.9998V40C23.9998 40.2761 24.2236 40.5 24.4998 40.5H25.4998C25.7759 40.5 25.9998 40.2761 25.9998 40V38.5H27.4998C27.7759 38.5 27.9998 38.2761 27.9998 38V37C27.9998 36.7239 27.7759 36.5 27.4998 36.5H25.9998V35C25.9998 34.7239 25.7759 34.5 25.4998 34.5H24.4998Z" fill="#2E3A59"/>
<path d="M17.4998 39C17.2236 39 16.9998 39.2239 16.9998 39.5V41H15.4998C15.2236 41 14.9998 41.2239 14.9998 41.5V42.5C14.9998 42.7761 15.2236 43 15.4998 43H16.9998V44.5C16.9998 44.7761 17.2236 45 17.4998 45H18.4998C18.7759 45 18.9998 44.7761 18.9998 44.5V43H20.4998C20.7759 43 20.9998 42.7761 20.9998 42.5V41.5C20.9998 41.2239 20.7759 41 20.4998 41H18.9998V39.5C18.9998 39.2239 18.7759 39 18.4998 39H17.4998Z" fill="#2E3A59"/>
<path d="M15.4998 30C15.2236 30 14.9998 30.2239 14.9998 30.5V32H13.4998C13.2236 32 12.9998 32.2239 12.9998 32.5V33.5C12.9998 33.7761 13.2236 34 13.4998 34H14.9998V35.5C14.9998 35.7761 15.2236 36 15.4998 36H16.4998C16.7759 36 16.9998 35.7761 16.9998 35.5V34H18.4998C18.7759 34 18.9998 33.7761 18.9998 33.5V32.5C18.9998 32.2239 18.7759 32 18.4998 32H16.9998V30.5C16.9998 30.2239 16.7759 30 16.4998 30H15.4998Z" fill="#2E3A59"/>
</svg>
